<svg width="63" height="19" viewBox="0 0 63 19" fill="none" xmlns="http://www.w3.org/2000/svg">
<path d="M7.74998 18L0.599976 0.5H3.02498L9.24998 15.95H9.32498L15.525 0.5H17.9L10.725 18H7.74998Z" fill="white"/>
<path d="M21.2611 18V0.5H23.5111V18H21.2611Z" fill="white"/>
<path d="M35.3142 18.375C33.8142 18.375 32.4892 18.1167 31.3392 17.6C30.1892 17.0667 29.2726 16.3167 28.5892 15.35C27.9226 14.3833 27.5309 13.2667 27.4142 12H29.6392C29.7726 12.9167 30.0726 13.7083 30.5392 14.375C31.0059 15.0417 31.6309 15.5667 32.4142 15.95C33.2142 16.3167 34.1392 16.5 35.1892 16.5C36.6892 16.5 37.8559 16.2083 38.6892 15.625C39.5226 15.025 39.9392 14.1833 39.9392 13.1C39.9392 12.3167 39.6976 11.6833 39.2142 11.2C38.7476 10.7 38.1142 10.3167 37.3142 10.05C36.5309 9.78333 35.5142 9.53333 34.2642 9.3H34.2392C32.9226 9.05 31.8226 8.76667 30.9392 8.45C30.0726 8.13333 29.3726 7.68333 28.8392 7.1C28.3059 6.51667 28.0392 5.75833 28.0392 4.825C28.0392 3.875 28.3142 3.05 28.8642 2.35C29.4309 1.63333 30.2059 1.08333 31.1892 0.7C32.1892 0.316667 33.3226 0.125 34.5892 0.125C36.0392 0.125 37.3059 0.383334 38.3892 0.9C39.4892 1.4 40.3559 2.11667 40.9892 3.05C41.6226 3.98333 41.9892 5.09167 42.0892 6.375H39.7642C39.6142 5.00833 39.0892 3.94167 38.1892 3.175C37.2892 2.40833 36.1142 2.025 34.6642 2.025C33.7476 2.025 32.9392 2.16667 32.2392 2.45C31.5559 2.73333 31.0226 3.14167 30.6392 3.675C30.2559 4.19167 30.0642 4.8 30.0642 5.5C30.0642 6.25 30.2976 6.85833 30.7642 7.325C31.2309 7.775 31.8726 8.13333 32.6892 8.4C33.5059 8.65 34.6392 8.925 36.0892 9.225C36.1559 9.24167 36.2142 9.25833 36.2642 9.275C36.3142 9.275 36.3642 9.28333 36.4142 9.3C36.4476 9.31667 36.4809 9.325 36.5142 9.325C36.5476 9.325 36.5809 9.33333 36.6142 9.35C37.7809 9.58333 38.7392 9.85 39.4892 10.15C40.2559 10.4333 40.8809 10.8667 41.3642 11.45C41.8642 12.0167 42.1142 12.7667 42.1142 13.7C42.1142 14.65 41.8309 15.4833 41.2642 16.2C40.7142 16.9 39.9226 17.4417 38.8892 17.825C37.8726 18.1917 36.6809 18.375 35.3142 18.375Z" fill="white"/>
<path d="M53.8855 18.375C52.1689 18.375 50.6189 17.9833 49.2355 17.2C47.8522 16.4 46.7605 15.3083 45.9605 13.925C45.1772 12.525 44.7855 10.9667 44.7855 9.25C44.7855 7.53333 45.1772 5.98333 45.9605 4.6C46.7605 3.2 47.8522 2.10833 49.2355 1.325C50.6189 0.525 52.1689 0.125 53.8855 0.125C55.6022 0.125 57.1522 0.525 58.5355 1.325C59.9189 2.10833 61.0022 3.2 61.7855 4.6C62.5689 5.98333 62.9605 7.53333 62.9605 9.25C62.9605 10.9667 62.5689 12.525 61.7855 13.925C61.0022 15.3083 59.9189 16.4 58.5355 17.2C57.1522 17.9833 55.6022 18.375 53.8855 18.375ZM53.8855 16.15C55.1689 16.15 56.3272 15.8583 57.3605 15.275C58.3939 14.675 59.2022 13.85 59.7855 12.8C60.3855 11.7333 60.6855 10.55 60.6855 9.25C60.6855 7.95 60.3855 6.775 59.7855 5.725C59.2022 4.65833 58.3939 3.825 57.3605 3.225C56.3272 2.625 55.1689 2.325 53.8855 2.325C52.6022 2.325 51.4439 2.625 50.4105 3.225C49.3772 3.825 48.5689 4.65833 47.9855 5.725C47.4022 6.775 47.1105 7.95 47.1105 9.25C47.1105 10.55 47.4022 11.7333 47.9855 12.8C48.5689 13.85 49.3772 14.675 50.4105 15.275C51.4439 15.8583 52.6022 16.15 53.8855 16.15Z" fill="white"/>
</svg>
